#Comment line ignore any data following # character 
#Hierarchical Translation and Rotation (.htr) file 
[Header]	
#Header keywords are followed by a single value 
FileType HTR		#Single word string
DataType HTRS		#Translation followed by rotation and scale data
FileVersion 1		#integer
NumSegments 25		#integer
NumFrames 4		#integer
DataFrameRate 30		#integer, data frame rate in this file
EulerRotationOrder ZYX
CalibrationUnits mm
RotationUnits Degrees
GlobalAxisofGravity Y
BoneLengthAxis Y
ScaleFactor 1.00
[SegmentNames&Hierarchy]
#CHILD	PARENT
BN_Tick_Root GLOBAL
BN_Torso BN_Tick_Root
BN_L_Leg_Front01 BN_Torso
BN_L_Leg_Rear01 BN_Torso
BN_MetalTop BN_Torso
BN_Neck BN_Torso
BN_R_Leg_Front01 BN_Torso
BN_R_Leg_Rear01 BN_Torso
BN_Sack BN_Torso
BN_L_Leg_Front02 BN_L_Leg_Front01
BN_L_Leg_Front03 BN_L_Leg_Front02
BN_L_Leg_Rear02 BN_L_Leg_Rear01
BN_L_Leg_Rear03 BN_L_Leg_Rear02
BN_Head BN_Neck
BN_Needle BN_Head
BN_R_Leg_Front02 BN_R_Leg_Front01
BN_R_Leg_Front03 BN_R_Leg_Front02
BN_R_Leg_Rear02 BN_R_Leg_Rear01
BN_R_Leg_Rear03 BN_R_Leg_Rear02
BN_SackDef01 BN_Sack
BN_SackDef02 BN_Sack
BN_SackDef03 BN_Sack
BN_SackDef04 BN_Sack
BN_SackDef05 BN_Sack
BN_SackDef06 BN_Sack
[BasePosition]
#SegmentName Tx, Ty, Tz, Rx, Ry, Rz, BoneLength
BN_Tick_Root 0.000000 0.000000 0.000000 -90.000000 0.000000 0.000000 10.000000 
BN_Torso 0.000000 0.000000 0.000000 0.000000 0.000000 0.000000 10.000000 
BN_L_Leg_Front01 0.000000 0.000000 0.000000 0.000000 0.000000 0.000000 10.000000 
BN_L_Leg_Rear01 0.000000 0.000000 0.000000 0.000000 0.000000 0.000000 10.000000 
BN_MetalTop 0.000000 0.000000 0.000000 0.000000 0.000000 0.000000 10.000000 
BN_Neck 0.000000 0.000000 0.000000 0.000000 0.000000 0.000000 10.000000 
BN_R_Leg_Front01 0.000000 0.000000 0.000000 0.000000 0.000000 0.000000 10.000000 
BN_R_Leg_Rear01 0.000000 0.000000 0.000000 0.000000 0.000000 0.000000 10.000000 
BN_Sack 0.000000 0.000000 0.000000 0.000000 0.000000 0.000000 10.000000 
BN_L_Leg_Front02 0.000000 0.000000 0.000000 0.000000 0.000000 0.000000 10.000000 
BN_L_Leg_Front03 0.000000 0.000000 0.000000 0.000000 0.000000 0.000000 10.000000 
BN_L_Leg_Rear02 0.000000 0.000000 0.000000 0.000000 0.000000 0.000000 10.000000 
BN_L_Leg_Rear03 0.000000 0.000000 0.000000 0.000000 0.000000 0.000000 10.000000 
BN_Head 0.000000 0.000000 0.000000 0.000000 0.000000 0.000000 10.000000 
BN_Needle 0.000000 0.000000 0.000000 0.000000 0.000000 0.000000 10.000000 
BN_R_Leg_Front02 0.000000 0.000000 0.000000 0.000000 0.000000 0.000000 10.000000 
BN_R_Leg_Front03 0.000000 0.000000 0.000000 0.000000 0.000000 0.000000 10.000000 
BN_R_Leg_Rear02 0.000000 0.000000 0.000000 0.000000 0.000000 0.000000 10.000000 
BN_R_Leg_Rear03 0.000000 0.000000 0.000000 0.000000 0.000000 0.000000 10.000000 
BN_SackDef01 0.000000 0.000000 0.000000 0.000000 0.000000 0.000000 10.000000 
BN_SackDef02 0.000000 0.000000 0.000000 0.000000 0.000000 0.000000 10.000000 
BN_SackDef03 0.000000 0.000000 0.000000 0.000000 0.000000 0.000000 10.000000 
BN_SackDef04 0.000000 0.000000 0.000000 0.000000 0.000000 0.000000 10.000000 
BN_SackDef05 0.000000 0.000000 0.000000 0.000000 0.000000 0.000000 10.000000 
BN_SackDef06 0.000000 0.000000 0.000000 0.000000 0.000000 0.000000 10.000000 
#Beginning of Data. Separated by tabs
#Fr	Tx	Ty	Tz	Rx	Ry	Rz	SF
[BN_Tick_Root]
111 0.000000 -277.735382 0.000000 0.000000 0.000000 -0.000020 277.735382
112 0.000000 -277.735382 0.000000 0.000000 0.000000 -0.000020 277.735382
113 0.000000 -277.735382 0.000000 0.000000 0.000000 -0.000020 277.735382
114 0.000000 -277.735382 0.000000 0.000000 0.000000 -0.000020 277.735382
[BN_Torso]
111 65.938782 137.981171 269.481171 27.073380 -0.432141 10.217955 309.849701
112 65.938782 139.331802 271.132996 27.073380 -0.432141 10.217955 311.888397
113 65.938782 140.682190 272.784882 27.073380 -0.432141 10.217955 313.928314
114 65.938782 142.032593 274.436798 27.073380 -0.432141 10.217955 315.969513
[BN_L_Leg_Front01]
111 -68.477791 10.734189 -26.804373 6.102148 53.401077 -141.766907 74.316254
112 -68.477791 10.734189 -26.804373 6.208553 53.350491 -141.225769 74.316254
113 -68.477791 10.734189 -26.804373 6.314046 53.299320 -140.685455 74.316254
114 -68.477791 10.734189 -26.804373 6.487346 53.313229 -140.303925 74.316254
[BN_L_Leg_Rear01]
111 -72.133743 -73.994843 -18.268616 97.287933 42.292061 -134.412048 104.939293
112 -72.133743 -73.994843 -18.268616 97.135971 42.212776 -134.169083 104.939293
113 -72.133743 -73.994843 -18.268616 97.078827 42.268600 -133.951630 104.939293
114 -72.133743 -73.994843 -18.268616 97.021942 42.324600 -133.734055 104.939293
[BN_MetalTop]
111 0.000008 13.737477 26.403606 103.932518 -39.851837 -119.452225 29.763546
112 0.000008 13.737477 26.403606 104.002052 -39.073654 -118.963593 29.763546
113 0.000008 13.737477 26.403606 104.015953 -38.351704 -118.384033 29.763546
114 0.000008 13.737477 26.403606 104.038940 -37.629810 -117.809853 29.763546
[BN_Neck]
111 0.000014 95.233284 10.002091 -89.999672 -65.297531 89.999657 95.757088
112 0.000014 95.233284 10.002091 -89.999672 -65.297531 89.999657 95.757088
113 0.000014 95.233284 10.002091 -89.999672 -65.297531 89.999657 95.757088
114 0.000014 95.233284 10.002091 -89.999672 -65.297531 89.999657 95.757088
[BN_R_Leg_Front01]
111 68.477768 10.734107 -26.804314 -39.781620 53.957436 -98.803062 74.316193
112 68.477768 10.734107 -26.804314 -38.144485 54.088734 -99.658180 74.316193
113 68.477768 10.734107 -26.804314 -36.956699 54.204250 -100.321762 74.316193
114 68.477768 10.734107 -26.804314 -36.163395 54.284439 -100.781876 74.316193
[BN_R_Leg_Rear01]
111 72.133751 -73.994873 -18.268644 -65.090775 28.039316 -87.492424 104.939331
112 72.133751 -73.994873 -18.268644 -65.068634 28.060131 -87.513557 104.939331
113 72.133751 -73.994873 -18.268644 -65.046455 28.080963 -87.534630 104.939331
114 72.133751 -73.994873 -18.268644 -65.029846 28.175196 -87.535904 104.939331
[BN_Sack]
111 -0.000000 -78.024918 33.657791 93.898933 0.432335 -123.306007 84.974907
112 -0.000000 -78.024918 33.657791 93.778999 0.795563 -123.045479 84.974907
113 -0.000000 -78.024918 33.657791 93.669777 1.159560 -122.624283 84.974907
114 -0.000000 -78.024918 33.657791 93.563187 1.524367 -122.203659 84.974907
[BN_L_Leg_Front02]
111 142.805023 -0.000015 -0.000104 0.177326 0.324562 -95.372444 142.805023
112 142.805023 -0.000015 -0.000104 0.176994 0.318598 -94.953110 142.805023
113 142.805023 -0.000015 -0.000104 0.176618 0.312636 -94.533722 142.805023
114 142.805023 -0.000015 -0.000104 0.178015 0.308418 -94.067383 142.805023
[BN_L_Leg_Front03]
111 124.143021 -0.000045 0.000007 0.352475 -0.435880 103.428741 124.143021
112 124.143021 -0.000045 0.000007 0.353961 -0.434675 103.037605 124.143021
113 124.143021 -0.000045 0.000007 0.353883 -0.437889 102.450813 124.143021
114 124.143021 -0.000045 0.000007 0.353837 -0.441104 101.863976 124.143021
[BN_L_Leg_Rear02]
111 139.939041 0.000075 -0.000022 0.073879 -0.245057 98.771034 139.939041
112 139.939041 0.000075 -0.000022 0.074850 -0.238466 98.111343 139.939041
113 139.939041 0.000075 -0.000022 0.075746 -0.231864 97.451660 139.939041
114 139.939041 0.000075 -0.000022 0.076565 -0.225252 96.792007 139.939041
[BN_L_Leg_Rear03]
111 142.839615 0.000179 -0.000060 0.000565 -0.002278 -117.871773 142.839615
112 142.839615 0.000179 -0.000060 0.000551 -0.002282 -117.149750 142.839615
113 142.839615 0.000179 -0.000060 0.000537 -0.002285 -116.427734 142.839615
114 142.839615 0.000179 -0.000060 0.000522 -0.002288 -115.705727 142.839615
[BN_Head]
111 57.062447 -0.000030 0.000000 0.171736 20.580925 49.890812 57.062447
112 57.062447 -0.000030 0.000000 1.658490 20.587067 54.006027 57.062447
113 57.062447 -0.000030 0.000000 2.256588 20.574539 55.639545 57.062447
114 57.062447 -0.000030 0.000000 2.087719 20.586828 55.166798 57.062447
[BN_Needle]
111 33.574165 60.391403 -0.000032 0.000003 0.000030 87.896805 69.096642
112 33.574169 60.391403 -0.000031 0.000003 0.000030 87.896805 69.096649
113 33.574169 60.391403 -0.000030 0.000003 0.000030 87.896805 69.096649
114 33.574169 60.391403 -0.000028 0.000003 0.000030 87.896805 69.096649
[BN_R_Leg_Front02]
111 142.804947 -0.000060 0.000060 0.007421 0.741364 134.513885 142.804947
112 142.804947 -0.000060 0.000060 -0.000739 0.734906 133.654495 142.804947
113 142.804947 -0.000060 0.000060 -0.009572 0.720594 132.560577 142.804947
114 142.804947 -0.000060 0.000060 -0.018130 0.706115 131.466599 142.804947
[BN_R_Leg_Front03]
111 124.143005 -0.000060 -0.000156 -0.352997 -0.297001 -138.775040 124.143005
112 124.143005 -0.000060 -0.000156 -0.356253 -0.299847 -138.198532 124.143005
113 124.143005 -0.000060 -0.000156 -0.355427 -0.303890 -137.439560 124.143005
114 124.143005 -0.000060 -0.000156 -0.354653 -0.307944 -136.680542 124.143005
[BN_R_Leg_Rear02]
111 139.939011 -0.000149 0.000015 -0.095839 -0.236673 -92.715126 139.939011
112 139.939011 -0.000149 0.000015 -0.097607 -0.233634 -91.876091 139.939011
113 139.939011 -0.000149 0.000015 -0.099331 -0.230569 -91.037094 139.939011
114 139.939011 -0.000149 0.000015 -0.093712 -0.215985 -90.376717 139.939011
[BN_R_Leg_Rear03]
111 142.839417 0.000075 0.000119 0.002308 -0.000428 111.034012 142.839417
112 142.839417 0.000075 0.000119 0.002312 -0.000408 110.042984 142.839417
113 142.839417 0.000075 0.000119 0.002315 -0.000388 109.052048 142.839417
114 142.839417 0.000075 0.000119 0.002318 -0.000372 108.254486 142.839417
[BN_SackDef01]
111 597.936646 -15.747002 103.387062 -128.408218 -44.374973 -11.740845 607.013184
112 597.936646 -15.747000 103.387062 -128.408218 -44.374973 -11.740845 607.013184
113 597.936646 -15.746996 103.387062 -128.408218 -44.374973 -11.740845 607.013184
114 597.936646 -15.746994 103.387062 -128.408218 -44.374973 -11.740845 607.013184
[BN_SackDef02]
111 233.072174 -211.160019 118.223602 32.077126 -27.375721 -88.781525 335.988129
112 233.072174 -211.160019 118.223602 32.077126 -27.375721 -88.781525 335.988129
113 233.072174 -211.160019 118.223610 32.077126 -27.375721 -88.781525 335.988129
114 233.072174 -211.160019 118.223610 32.077126 -27.375721 -88.781525 335.988129
[BN_SackDef03]
111 597.936523 -15.746994 -103.387161 18.144459 44.375008 -11.740894 607.013123
112 597.936523 -15.746992 -103.387161 18.144459 44.375008 -11.740894 607.013123
113 597.936523 -15.746990 -103.387161 18.144459 44.375008 -11.740894 607.013123
114 597.936523 -15.746988 -103.387161 18.144459 44.375008 -11.740894 607.013123
[BN_SackDef04]
111 233.072037 -211.159973 -118.223366 146.059982 27.375723 -88.781555 335.987915
112 233.072037 -211.159973 -118.223366 146.059982 27.375723 -88.781555 335.987915
113 233.072037 -211.159973 -118.223366 146.059982 27.375723 -88.781555 335.987915
114 233.072037 -211.159973 -118.223366 146.059982 27.375723 -88.781555 335.987915
[BN_SackDef05]
111 289.341003 263.516876 -164.100388 0.155741 51.314110 90.605110 424.368103
112 289.341003 263.516876 -164.100388 0.155741 51.314110 90.605110 424.368103
113 289.341003 263.516876 -164.100388 0.155741 51.314110 90.605110 424.368103
114 289.341003 263.516876 -164.100388 0.155741 51.314110 90.605110 424.368103
[BN_SackDef06]
111 289.341064 263.516998 164.100037 152.058487 -51.314072 90.605019 424.368103
112 289.341064 263.516998 164.100037 152.058487 -51.314072 90.605019 424.368103
113 289.341064 263.516998 164.100037 152.058487 -51.314072 90.605019 424.368103
114 289.341064 263.516998 164.100037 152.058487 -51.314072 90.605019 424.368103
